<svg xmlns="http://www.w3.org/2000/svg" width="24" height="24" fill="currentColor" viewBox="0 0 24 24">
  <path fill-rule="evenodd" d="M19 1H5a4 4 0 0 0-4 4v14a4 4 0 0 0 4 4h14a4 4 0 0 0 4-4V5a4 4 0 0 0-4-4ZM5 0a5 5 0 0 0-5 5v14a5 5 0 0 0 5 5h14a5 5 0 0 0 5-5V5a5 5 0 0 0-5-5H5Z" clip-rule="evenodd"/>
  <path d="M12 6a6 6 0 1 0 6 6 6.007 6.007 0 0 0-6-6Zm-.23 2.77a.692.692 0 1 1 0 1.384.692.692 0 0 1 0-1.385Zm.691 6.46a.923.923 0 0 1-.922-.922V12a.462.462 0 1 1 0-.923.923.923 0 0 1 .922.923v2.308a.462.462 0 1 1 0 .923Z"/>
</svg>
