<svg xmlns="http://www.w3.org/2000/svg" width="20" height="20" viewBox="0 0 20 20">
  <path d="M13.125 10C12.3219 10 11.5453 9.64141 10.9375 8.99063C10.3465 8.35586 9.98556 7.50938 9.92189 6.60781C9.85392 5.64609 10.1473 4.76172 10.7477 4.11719C11.3481 3.47266 12.1875 3.125 13.125 3.125C14.0559 3.125 14.8977 3.47891 15.4961 4.12187C16.1004 4.77109 16.3945 5.65391 16.3266 6.60742C16.2613 7.51016 15.9008 8.35625 15.311 8.99023C14.7047 9.64141 13.9285 10 13.125 10ZM18.2746 16.875H7.9758C7.81022 16.8759 7.64664 16.8388 7.49765 16.7665C7.34867 16.6943 7.21824 16.5888 7.11642 16.4582C7.00842 16.3167 6.93383 16.1525 6.89825 15.978C6.86267 15.8036 6.86701 15.6233 6.91095 15.4508C7.23986 14.1301 8.0547 13.0348 9.2672 12.2836C10.3434 11.6172 11.7133 11.25 13.125 11.25C14.5645 11.25 15.8985 11.6016 16.9809 12.2676C18.1961 13.0148 19.0121 14.1164 19.3395 15.4531C19.3829 15.6258 19.3867 15.806 19.3508 15.9804C19.3148 16.1548 19.2399 16.3188 19.1317 16.4602C19.0299 16.5901 18.8998 16.6951 18.7513 16.767C18.6027 16.8389 18.4397 16.8758 18.2746 16.875ZM5.7422 10.1563C4.36759 10.1563 3.159 8.87813 3.04689 7.30742C2.99142 6.50273 3.2422 5.75859 3.75002 5.21289C4.25236 4.67266 4.96095 4.375 5.7422 4.375C6.52345 4.375 7.22658 4.67422 7.73166 5.21758C8.24338 5.76758 8.49338 6.51016 8.43478 7.3082C8.32267 8.87852 7.11447 10.1563 5.7422 10.1563ZM8.30705 11.3848C7.61994 11.0488 6.72814 10.8809 5.74259 10.8809C4.59181 10.8809 3.47424 11.1809 2.59533 11.7254C1.59884 12.3438 0.928532 13.2441 0.657829 14.3313C0.618214 14.4876 0.614467 14.6509 0.646869 14.8089C0.67927 14.9669 0.746982 15.1156 0.844938 15.2438C0.937887 15.3631 1.05696 15.4595 1.19301 15.5256C1.32906 15.5917 1.47845 15.6257 1.6297 15.625H5.96564C6.03883 15.625 6.10968 15.5993 6.16586 15.5524C6.22204 15.5055 6.25998 15.4404 6.27306 15.3684C6.27736 15.3438 6.28283 15.3191 6.28908 15.2949C6.62033 13.9645 7.3965 12.8402 8.54338 12.0207C8.58556 11.9903 8.61949 11.9498 8.64209 11.903C8.66469 11.8562 8.67524 11.8045 8.6728 11.7525C8.67035 11.7006 8.65499 11.6501 8.62809 11.6056C8.60119 11.5611 8.56362 11.524 8.51877 11.4977C8.45744 11.4617 8.38713 11.4238 8.30705 11.3848Z"/>
</svg>