<svg xmlns="http://www.w3.org/2000/svg" width="22" height="22" viewBox="0 0 22 22">
  <path fill-rule="evenodd" clip-rule="evenodd" d="M6.32627 19.5575C6.68708 19.9049 7.27049 19.9049 7.63041 19.5575L15.259 12.1952C15.4298 12.0329 15.5659 11.8376 15.6588 11.6211C15.7517 11.4046 15.7993 11.1715 15.7993 10.9359C15.7993 10.7004 15.7517 10.4672 15.6588 10.2507C15.5659 10.0343 15.4298 9.83895 15.259 9.67667L7.57516 2.26006C7.21881 1.91706 6.64143 1.9126 6.27973 2.25114C6.19228 2.33186 6.12252 2.42967 6.07441 2.53852C6.02629 2.64738 6.00086 2.76495 6.00002 2.88396C5.99919 3.00297 6.0226 3.12089 6.06919 3.23041C6.11577 3.33993 6.18472 3.43871 6.27103 3.52065L13.3024 10.3065C13.3879 10.3877 13.456 10.4854 13.5025 10.5936C13.549 10.7019 13.573 10.8185 13.573 10.9364C13.573 11.0542 13.549 11.1708 13.5025 11.2791C13.456 11.3874 13.3879 11.4851 13.3024 11.5662L6.32714 18.2986C6.24172 18.3797 6.17353 18.4773 6.12704 18.5855C6.08055 18.6937 6.05657 18.8103 6.05657 18.928C6.05657 19.0458 6.08055 19.1624 6.12704 19.2706C6.17353 19.3788 6.24085 19.4764 6.32627 19.5575Z"/>
</svg>