<svg width="20" height="20" viewBox="0 0 20 20" xmlns="http://www.w3.org/2000/svg">
<path d="M13.275 9.5475L6.30875 2.91C6.19251 2.79919 6.03808 2.73738 5.8775 2.73738C5.71691 2.73738 5.56248 2.79919 5.44625 2.91L5.43875 2.9175C5.3822 2.97122 5.33718 3.03587 5.30641 3.10754C5.27564 3.17921 5.25978 3.25638 5.25978 3.33437C5.25978 3.41237 5.27564 3.48954 5.30641 3.56121C5.33718 3.63288 5.3822 3.69753 5.43875 3.75125L11.9987 10.0013L5.43875 16.2487C5.3822 16.3025 5.33718 16.3671 5.30641 16.4388C5.27564 16.5105 5.25978 16.5876 5.25978 16.6656C5.25978 16.7436 5.27564 16.8208 5.30641 16.8925C5.33718 16.9641 5.3822 17.0288 5.43875 17.0825L5.44625 17.09C5.56248 17.2008 5.71691 17.2626 5.8775 17.2626C6.03808 17.2626 6.19251 17.2008 6.30875 17.09L13.275 10.4525C13.3363 10.3941 13.385 10.3239 13.4184 10.2461C13.4517 10.1684 13.4689 10.0846 13.4689 10C13.4689 9.91538 13.4517 9.83164 13.4184 9.75386C13.385 9.67608 13.3363 9.60587 13.275 9.5475Z"/>
</svg>
