<svg width="24" height="24" viewBox="0 0 24 24" fill="none" xmlns="http://www.w3.org/2000/svg">
<path fill-rule="evenodd" clip-rule="evenodd" d="M3.59998 8.40001C3.59998 8.08175 3.7264 7.77653 3.95145 7.55148C4.17649 7.32644 4.48172 7.20001 4.79998 7.20001H19.2C19.5182 7.20001 19.8235 7.32644 20.0485 7.55148C20.2735 7.77653 20.4 8.08175 20.4 8.40001C20.4 8.71827 20.2735 9.0235 20.0485 9.24854C19.8235 9.47358 19.5182 9.60001 19.2 9.60001H4.79998C4.48172 9.60001 4.17649 9.47358 3.95145 9.24854C3.7264 9.0235 3.59998 8.71827 3.59998 8.40001ZM3.59998 15.6C3.59998 15.2818 3.7264 14.9765 3.95145 14.7515C4.17649 14.5264 4.48172 14.4 4.79998 14.4H19.2C19.5182 14.4 19.8235 14.5264 20.0485 14.7515C20.2735 14.9765 20.4 15.2818 20.4 15.6C20.4 15.9183 20.2735 16.2235 20.0485 16.4485C19.8235 16.6736 19.5182 16.8 19.2 16.8H4.79998C4.48172 16.8 4.17649 16.6736 3.95145 16.4485C3.7264 16.2235 3.59998 15.9183 3.59998 15.6Z" />
</svg>
