<svg xmlns="http://www.w3.org/2000/svg" width="24" height="24" fill="currentColor" viewBox="0 0 24 24">
  <path fill-rule="evenodd" d="M19 1H5a4 4 0 0 0-4 4v14a4 4 0 0 0 4 4h14a4 4 0 0 0 4-4V5a4 4 0 0 0-4-4ZM5 0a5 5 0 0 0-5 5v14a5 5 0 0 0 5 5h14a5 5 0 0 0 5-5V5a5 5 0 0 0-5-5H5Z" clip-rule="evenodd"/>
  <path d="m17.61 16.14-2.646-9.103c-.375-1.292-1.99-1.761-2.906-.845l-6.456 6.456c-.917.917-.447 2.531.845 2.907l9.102 2.646a1.644 1.644 0 0 0 2.062-2.062Zm-3.166.159a.973.973 0 0 1-.23-1.04l-1.285-1.314c-.62.394-1.474.302-2.041-.265a1.738 1.738 0 0 1-.317-.434l-1.708.419a.9.9 0 0 1-.26.677c-.361.36-.962.346-1.341-.033-.38-.38-.394-.98-.033-1.34.361-.362.961-.347 1.34.032l.056.06 1.765-.432a1.552 1.552 0 0 1 .441-1.25 1.561 1.561 0 0 1 1.265-.44l.395-1.61a1.025 1.025 0 0 1-.135-.114c-.38-.379-.394-.98-.033-1.34.36-.361.96-.347 1.34.033.38.38.394.98.033 1.34a.895.895 0 0 1-.587.26l-.396 1.617c.15.08.293.183.42.31.578.579.663 1.455.24 2.078l1.257 1.285a.967.967 0 0 1 1.122.193c.379.38.394.98.033 1.34-.361.362-.961.347-1.34-.032Z"/>
</svg>
