<svg xmlns="http://www.w3.org/2000/svg" width="20" height="20" viewBox="0 0 20 20">
<g clip-path="url(#clip0_849_474)">
<path d="M3.78321 11.1961C3.73178 11.1583 3.67001 11.1372 3.60622 11.1356C3.54243 11.1339 3.47967 11.1519 3.42637 11.187C3.37307 11.222 3.3318 11.2726 3.30809 11.3319C3.28438 11.3911 3.27938 11.4562 3.29375 11.5184C3.98711 14.5813 6.73047 16.875 10 16.875C10.6943 16.8752 11.3846 16.7699 12.0473 16.5625C12.1084 16.5436 12.1623 16.5065 12.2017 16.456C12.241 16.4055 12.2639 16.3442 12.2673 16.2803C12.2706 16.2164 12.2543 16.153 12.2205 16.0987C12.1867 16.0444 12.137 16.0017 12.0781 15.9766C10.614 15.3312 9.18629 14.606 7.80157 13.8043C6.41574 13.0085 5.07429 12.1378 3.78321 11.1961ZM19.2469 13.2621C19.0832 13.0441 18.891 12.8152 18.6727 12.5773C18.6013 12.4987 18.5109 12.4398 18.4102 12.4063C18.3095 12.3728 18.2018 12.3657 18.0976 12.3859C17.9933 12.406 17.896 12.4526 17.8151 12.5213C17.7341 12.5899 17.6721 12.6782 17.6352 12.7777C17.6352 12.784 17.6309 12.7898 17.6285 12.7961C17.5896 12.9019 17.5805 13.0164 17.6022 13.127C17.6239 13.2376 17.6755 13.3402 17.7516 13.4234C18.6398 14.4 18.7836 14.9277 18.7469 15.0391C18.6688 15.1262 18.0809 15.3082 16.4754 14.9012C16.2454 14.8428 15.9939 14.7717 15.7207 14.6879C15.5447 14.6337 15.3651 14.5753 15.182 14.5125C15.4696 14.1827 15.7252 13.8263 15.9453 13.448C15.952 13.4367 15.959 13.4254 15.9656 13.4137C16.562 12.3748 16.8755 11.1978 16.875 10C16.8752 9.75209 16.8621 9.50434 16.8359 9.25781C16.4621 5.81367 13.5391 3.125 10 3.125C8.49838 3.12416 7.03807 3.61674 5.84375 4.52695C5.11988 5.0779 4.51156 5.76599 4.05352 6.55195C4.04727 6.56328 4.04024 6.57461 4.0336 6.58594C3.8159 6.96519 3.635 7.36441 3.49336 7.77813C3.34779 7.6513 3.2073 7.52539 3.07188 7.40039C2.86133 7.20508 2.67461 7.02422 2.5086 6.85352C1.35352 5.67149 1.21602 5.07188 1.25235 4.96094C1.33047 4.87383 1.85938 4.73164 3.15157 5.01211C3.26204 5.0364 3.37707 5.02991 3.4841 4.99334C3.59114 4.95676 3.68609 4.89151 3.7586 4.80469L3.77266 4.7875C3.84006 4.70651 3.88551 4.60956 3.90466 4.50595C3.9238 4.40233 3.916 4.29554 3.882 4.19581C3.848 4.09608 3.78894 4.00676 3.71049 3.93643C3.63203 3.86609 3.53682 3.8171 3.43399 3.79414C3.12729 3.72465 2.81725 3.6708 2.50508 3.63281C1.30508 3.49492 0.519535 3.73125 0.169926 4.33594C0.0433631 4.55391 -0.0781213 4.92539 0.0636756 5.45313C0.273441 6.23672 1.0211 7.1875 2.0793 8.1836C2.41641 8.50117 2.78477 8.82305 3.17774 9.1461C3.46368 9.38047 3.76368 9.61719 4.07227 9.85235C4.27826 10.0086 4.48855 10.1648 4.70313 10.3211C4.91771 10.4773 5.13516 10.6307 5.35547 10.7813C6.34805 11.4691 7.39688 12.1297 8.42539 12.7223C8.79883 12.9374 9.17175 13.1457 9.54414 13.3473C9.91654 13.5488 10.2859 13.7417 10.6523 13.9258C11.5078 14.3555 12.3457 14.743 13.1469 15.0754C13.4904 15.2181 13.8264 15.3504 14.1551 15.4723C14.6195 15.6449 15.068 15.7969 15.4953 15.925L15.5383 15.9379C16.5434 16.2371 17.3906 16.3945 18.057 16.4066H18.125C18.9703 16.4066 19.543 16.1574 19.8273 15.6645C20.1824 15.0543 19.9867 14.2457 19.2469 13.2621Z"/>
</g>
<defs>
<clipPath id="clip0_849_474">
<rect width="20" height="20"/>
</clipPath>
</defs>
</svg>