<svg xmlns="http://www.w3.org/2000/svg" width="24" height="24" fill="currentColor" viewBox="0 0 24 24">
  <path fill-rule="evenodd" d="M6 8c0-.53.19-1.04.527-1.414A1.714 1.714 0 0 1 7.8 6h8.4c.477 0 .935.21 1.273.586C17.81 6.96 18 7.47 18 8v8c0 .53-.19 1.04-.527 1.414A1.714 1.714 0 0 1 16.2 18H7.8c-.477 0-.935-.21-1.273-.586A2.118 2.118 0 0 1 6 16V8Zm3 .667c-.16 0-.312.07-.424.195a.706.706 0 0 0-.176.471V12c0 .177.063.346.176.471a.571.571 0 0 0 .424.196h2.4c.16 0 .312-.07.424-.196A.706.706 0 0 0 12 12V9.333a.706.706 0 0 0-.176-.471.571.571 0 0 0-.424-.195H9Zm.6 2.666V10h1.2v1.333H9.6Zm4.2-2.666c-.16 0-.312.07-.424.195a.706.706 0 0 0-.176.471c0 .177.063.347.176.472A.572.572 0 0 0 13.8 10H15c.16 0 .312-.07.424-.195a.706.706 0 0 0 .176-.472.706.706 0 0 0-.176-.471.571.571 0 0 0-.424-.195h-1.2Zm0 2.666c-.16 0-.312.07-.424.196A.706.706 0 0 0 13.2 12c0 .177.063.346.176.471a.572.572 0 0 0 .424.196H15c.16 0 .312-.07.424-.196A.706.706 0 0 0 15.6 12a.706.706 0 0 0-.176-.471.572.572 0 0 0-.424-.196h-1.2ZM9 14c-.16 0-.312.07-.424.195a.706.706 0 0 0-.176.472c0 .177.063.346.176.471a.571.571 0 0 0 .424.195h6c.16 0 .312-.07.424-.195a.706.706 0 0 0 .176-.471.706.706 0 0 0-.176-.472A.571.571 0 0 0 15 14H9Z" clip-rule="evenodd"/>
  <path fill-rule="evenodd" d="M19 1H5a4 4 0 0 0-4 4v14a4 4 0 0 0 4 4h14a4 4 0 0 0 4-4V5a4 4 0 0 0-4-4ZM5 0a5 5 0 0 0-5 5v14a5 5 0 0 0 5 5h14a5 5 0 0 0 5-5V5a5 5 0 0 0-5-5H5Z" clip-rule="evenodd"/>
</svg>
