<svg xmlns="http://www.w3.org/2000/svg" width="24" height="24" fill="currentColor" viewBox="0 0 24 24">
  <g clip-path="url(#a)">
    <path fill-rule="evenodd" d="M19 1H5a4 4 0 0 0-4 4v14a4 4 0 0 0 4 4h14a4 4 0 0 0 4-4V5a4 4 0 0 0-4-4ZM5 0a5 5 0 0 0-5 5v14a5 5 0 0 0 5 5h14a5 5 0 0 0 5-5V5a5 5 0 0 0-5-5H5Z" clip-rule="evenodd"/>
    <path d="M13.842 6.873A2.36 2.36 0 0 0 12 6c-.725 0-1.38.308-1.846.867-.47.566-.7 1.334-.646 2.164C9.614 10.668 10.733 12 12 12c1.268 0 2.384-1.332 2.492-2.968.055-.823-.176-1.59-.65-2.16ZM16.231 18H7.769a.68.68 0 0 1-.32-.076.76.76 0 0 1-.261-.222 1.027 1.027 0 0 1-.173-.78c.203-1.254.836-2.308 1.831-3.047.884-.657 2.004-1.018 3.154-1.018s2.27.362 3.154 1.018c.995.74 1.628 1.793 1.831 3.047.047.287-.016.571-.173.78a.76.76 0 0 1-.26.222.68.68 0 0 1-.321.076Z"/>
  </g>
  <defs>
    <clipPath id="a">
      <path d="M0 0h24v24H0z"/>
    </clipPath>
  </defs>
</svg>
