<svg width="24" height="24" viewBox="0 0 24 24" fill="none" xmlns="http://www.w3.org/2000/svg">
<path d="M21 13.1547C20.8427 14.8569 20.2039 16.4791 19.1583 17.8315C18.1127 19.1839 16.7035 20.2105 15.0957 20.7912C13.4879 21.372 11.748 21.4828 10.0795 21.1108C8.41104 20.7387 6.88302 19.8992 5.67425 18.6905C4.46548 17.4817 3.62596 15.9537 3.25393 14.2852C2.8819 12.6167 2.99274 10.8768 3.57348 9.26898C4.15423 7.66119 5.18085 6.25205 6.53324 5.20644C7.88562 4.16083 9.50782 3.52199 11.21 3.36469C10.2134 4.71295 9.73387 6.37413 9.85856 8.0461C9.98324 9.71806 10.7039 11.2897 11.8894 12.4753C13.075 13.6608 14.6466 14.3815 16.3186 14.5062C17.9906 14.6308 19.6518 14.1513 21 13.1547Z" fill="#5B82BF" stroke="#5B82BF" stroke-width="2" stroke-linecap="round" stroke-linejoin="round"/>
</svg>
