<svg width="280" height="64" viewBox="0 0 280 64" fill="none" xmlns="http://www.w3.org/2000/svg">
<g clip-path="url(#clip0_5_18)">
<g clip-path="url(#clip1_5_18)">
<path d="M47.3596 49.0142L46.6785 16.7409C46.582 12.1603 41.6838 9.19343 37.8624 11.3997L10.9345 26.9465C7.11241 29.1532 7.23338 34.8782 11.152 37.2521L38.761 53.9786C42.6796 56.3525 47.4569 53.5943 47.3603 49.0137L47.3596 49.0142ZM36.8032 46.7493C36.1132 45.5542 36.219 44.1281 36.9607 43.1276L33.894 37.6721C31.5053 38.4208 28.7785 37.3643 27.4137 35.0003C27.0973 34.4523 26.8801 33.8762 26.7537 33.2937L20.7663 33.1645C20.5806 33.9863 20.0796 34.7196 19.3126 35.1624C17.8072 36.0315 15.8455 35.4543 14.932 33.8721C14.0185 32.2898 14.4987 30.3027 16.0048 29.4332C17.5109 28.5637 19.4719 29.1413 20.3854 30.7235C20.4323 30.8047 20.474 30.8869 20.5138 30.9691L26.7025 31.1033C26.9636 29.5745 27.8486 28.1926 29.256 27.3801C30.6633 26.5675 32.3384 26.4914 33.8046 27.048L36.5213 22.099C36.3948 21.9476 36.2792 21.7838 36.1772 21.6071C35.2637 20.0249 35.744 18.0378 37.2501 17.1683C38.7562 16.2987 40.7171 16.8763 41.6306 18.4586C42.5442 20.0409 42.0639 22.0279 40.5578 22.8975C39.8831 23.287 39.1175 23.3853 38.3957 23.2338L35.6675 28.2044C36.0937 28.5988 36.4708 29.0636 36.7776 29.595C38.1698 32.0064 37.6752 34.9649 35.738 36.6426L38.7367 41.9769C40.0631 41.6852 41.5105 42.3068 42.2573 43.6004C43.1704 45.1819 42.6906 47.1697 41.1845 48.0393C39.6784 48.9088 37.7175 48.3312 36.8039 46.7489L36.8032 46.7493Z" fill="url(#paint0_linear_5_18)"/>
</g>
<g clip-path="url(#clip2_5_18)">
<path d="M105.125 20.0203C105.973 20.0203 106.667 20.3658 107.21 21.0568L124.549 42.2794C124.922 42.7071 125.108 43.2006 125.108 43.76C125.108 44.4181 124.837 44.9939 124.295 45.4874C123.752 45.981 123.159 46.2277 122.515 46.2277C121.701 46.2277 121.006 45.8823 120.43 45.1913L103.091 23.9687C102.718 23.541 102.532 23.0474 102.532 22.4881C102.532 21.7971 102.786 21.2213 103.295 20.7606C103.837 20.2671 104.447 20.0203 105.125 20.0203ZM105.176 46.2277C104.6 46.2277 104.04 46.0139 103.498 45.5861C102.956 45.1584 102.684 44.6319 102.684 44.0068C102.684 43.4474 102.888 42.9374 103.295 42.4768L111.379 32.7539L113.973 36.801L107.21 45.1913C106.667 45.8823 105.989 46.2277 105.176 46.2277ZM122.464 20.0203C123.176 20.0203 123.752 20.2506 124.193 20.7113C124.667 21.139 124.905 21.649 124.905 22.2413C124.905 22.5045 124.854 22.7842 124.752 23.0803C124.684 23.3435 124.532 23.5903 124.295 23.8206L116.312 33.5435L113.667 29.8913L120.43 21.1555C121.006 20.3987 121.684 20.0203 122.464 20.0203ZM149.633 19.971C150.379 19.971 150.989 20.2177 151.464 20.7113C151.938 21.1719 152.176 21.7642 152.176 22.4881V43.7106C152.176 46.6061 151.599 48.9587 150.447 50.7684C149.328 52.5781 147.803 53.8942 145.871 54.7168C143.972 55.5723 141.82 56 139.413 56C138.193 56 136.972 55.8848 135.752 55.6545C134.532 55.4571 133.532 55.161 132.752 54.7661C131.938 54.4042 131.362 53.96 131.023 53.4335C130.684 52.9071 130.633 52.3313 130.871 51.7061C131.108 50.9164 131.515 50.3735 132.091 50.0774C132.667 49.8142 133.26 49.7977 133.871 50.0281C134.447 50.2584 135.209 50.5545 136.159 50.9164C137.108 51.2784 138.193 51.4594 139.413 51.4594C141.074 51.4594 142.481 51.1961 143.633 50.6697C144.786 50.1432 145.65 49.3206 146.226 48.2019C146.837 47.0832 147.142 45.6355 147.142 43.8587V40.4532L147.955 41.6377C147.413 42.7235 146.701 43.6284 145.82 44.3523C144.938 45.0761 143.887 45.6355 142.667 46.0303C141.481 46.4252 140.159 46.6226 138.701 46.6226C136.837 46.6226 135.226 46.2277 133.871 45.4381C132.548 44.6155 131.532 43.4968 130.82 42.0819C130.108 40.6342 129.752 38.989 129.752 37.1464V22.4881C129.752 21.7642 129.989 21.1719 130.464 20.7113C130.938 20.2177 131.548 19.971 132.294 19.971C133.006 19.971 133.599 20.2177 134.074 20.7113C134.582 21.1719 134.837 21.7642 134.837 22.4881V35.8139C134.837 37.9855 135.328 39.5813 136.311 40.6013C137.294 41.5884 138.752 42.0819 140.684 42.0819C141.972 42.0819 143.091 41.8187 144.04 41.2923C144.989 40.7658 145.735 40.0419 146.277 39.1206C146.82 38.1664 147.091 37.0642 147.091 35.8139V22.4881C147.091 21.7642 147.328 21.1719 147.803 20.7113C148.311 20.2177 148.921 19.971 149.633 19.971ZM171.755 9.6558C172.399 9.6558 173.06 9.73806 173.738 9.90257C174.416 10.0671 174.975 10.3468 175.416 10.7416C175.89 11.1035 176.128 11.6135 176.128 12.2716C176.128 12.9297 175.924 13.4726 175.517 13.9003C175.111 14.2952 174.636 14.4926 174.094 14.4926C173.755 14.4926 173.297 14.4268 172.721 14.2952C172.145 14.1306 171.568 14.0484 170.992 14.0484C170.212 14.0484 169.585 14.2293 169.111 14.5913C168.636 14.9203 168.297 15.3481 168.094 15.8745C167.89 16.3681 167.789 16.8616 167.789 17.3552V43.6119C167.789 44.3358 167.534 44.9445 167.026 45.4381C166.551 45.8987 165.958 46.129 165.246 46.129C164.501 46.129 163.89 45.8987 163.416 45.4381C162.941 44.9445 162.704 44.3358 162.704 43.6119V17.4045C162.704 15.1342 163.467 13.2752 164.992 11.8274C166.551 10.3797 168.806 9.6558 171.755 9.6558ZM172.772 20.6126C173.45 20.6126 174.009 20.8264 174.45 21.2542C174.89 21.6819 175.111 22.2248 175.111 22.8829C175.111 23.541 174.89 24.0839 174.45 24.5116C174.009 24.9393 173.45 25.1532 172.772 25.1532H159.602C158.958 25.1532 158.399 24.9393 157.924 24.5116C157.484 24.0839 157.263 23.541 157.263 22.8829C157.263 22.2248 157.484 21.6819 157.924 21.2542C158.399 20.8264 158.958 20.6126 159.602 20.6126H172.772ZM185.687 43.6119C185.687 44.3358 185.433 44.9445 184.924 45.4381C184.45 45.8987 183.856 46.129 183.145 46.129C182.433 46.129 181.823 45.8987 181.314 45.4381C180.839 44.9445 180.602 44.3358 180.602 43.6119V12.1235C180.602 11.3997 180.856 10.8074 181.365 10.3468C181.873 9.85322 182.484 9.60645 183.195 9.60645C183.941 9.60645 184.534 9.85322 184.975 10.3468C185.45 10.8074 185.687 11.3997 185.687 12.1235V43.6119ZM215.177 19.7735C215.923 19.7735 216.533 20.0203 217.007 20.5139C217.482 20.9745 217.719 21.5668 217.719 22.2906V43.6119C217.719 44.3358 217.482 44.9445 217.007 45.4381C216.533 45.8987 215.923 46.129 215.177 46.129C214.465 46.129 213.855 45.8987 213.346 45.4381C212.872 44.9445 212.634 44.3358 212.634 43.6119V40.0584L213.702 40.2064C213.702 40.7987 213.448 41.4568 212.939 42.1806C212.465 42.9045 211.804 43.6119 210.956 44.3029C210.109 44.961 209.109 45.5203 207.956 45.981C206.804 46.4087 205.567 46.6226 204.245 46.6226C201.906 46.6226 199.804 46.0468 197.939 44.8952C196.075 43.7106 194.6 42.0984 193.516 40.0584C192.431 38.0184 191.889 35.6987 191.889 33.0993C191.889 30.4342 192.431 28.0981 193.516 26.091C194.6 24.051 196.058 22.4552 197.889 21.3035C199.753 20.1519 201.821 19.5761 204.092 19.5761C205.55 19.5761 206.889 19.8064 208.109 20.2671C209.363 20.7277 210.448 21.32 211.363 22.0439C212.278 22.7677 212.973 23.541 213.448 24.3635C213.956 25.1532 214.211 25.91 214.211 26.6339L212.634 26.7819V22.2906C212.634 21.5997 212.872 21.0074 213.346 20.5139C213.855 20.0203 214.465 19.7735 215.177 19.7735ZM204.804 42.0819C206.397 42.0819 207.804 41.6871 209.024 40.8974C210.245 40.1077 211.194 39.0384 211.872 37.6894C212.55 36.3074 212.889 34.7774 212.889 33.0993C212.889 31.3884 212.55 29.8584 211.872 28.5093C211.194 27.1603 210.245 26.091 209.024 25.3013C207.804 24.5116 206.397 24.1168 204.804 24.1168C203.245 24.1168 201.855 24.5116 200.634 25.3013C199.448 26.091 198.499 27.1603 197.787 28.5093C197.109 29.8584 196.77 31.3884 196.77 33.0993C196.77 34.7774 197.109 36.3074 197.787 37.6894C198.499 39.0384 199.448 40.1077 200.634 40.8974C201.855 41.6871 203.245 42.0819 204.804 42.0819ZM227.385 46.129C226.639 46.129 226.029 45.8987 225.554 45.4381C225.08 44.9445 224.843 44.3358 224.843 43.6119V22.6855C224.843 21.9616 225.08 21.3693 225.554 20.9087C226.029 20.4152 226.639 20.1684 227.385 20.1684C228.097 20.1684 228.69 20.4152 229.165 20.9087C229.673 21.3693 229.927 21.9616 229.927 22.6855V28.2132L229.419 26.091C229.69 25.1697 230.097 24.3142 230.639 23.5245C231.215 22.7348 231.893 22.0439 232.673 21.4516C233.453 20.8593 234.317 20.3987 235.266 20.0697C236.249 19.7406 237.266 19.5761 238.317 19.5761C239.198 19.5761 239.961 19.8064 240.605 20.2671C241.249 20.7277 241.571 21.3035 241.571 21.9945C241.571 22.8829 241.334 23.541 240.859 23.9687C240.385 24.3635 239.859 24.561 239.283 24.561C238.775 24.561 238.283 24.4623 237.809 24.2648C237.334 24.0345 236.775 23.9193 236.131 23.9193C235.419 23.9193 234.69 24.1003 233.944 24.4623C233.198 24.8242 232.52 25.3671 231.91 26.091C231.3 26.7819 230.809 27.6045 230.436 28.5587C230.097 29.5129 229.927 30.5823 229.927 31.7668V43.6119C229.927 44.3358 229.673 44.9445 229.165 45.4381C228.69 45.8987 228.097 46.129 227.385 46.129Z" fill="url(#paint1_linear_5_18)"/>
<path d="M94.4576 31.3226H74.1186C72.9485 31.3226 72 32.2433 72 33.379C72 34.5148 72.9485 35.4355 74.1186 35.4355H94.4576C95.6277 35.4355 96.5763 34.5148 96.5763 33.379C96.5763 32.2433 95.6277 31.3226 94.4576 31.3226Z" fill="#BAC4DC"/>
<path d="M94.4576 41.1935H74.1186C72.9485 41.1935 72 42.1142 72 43.25C72 44.3857 72.9485 45.3064 74.1186 45.3064H94.4576C95.6277 45.3064 96.5763 44.3857 96.5763 43.25C96.5763 42.1142 95.6277 41.1935 94.4576 41.1935Z" fill="#CBD5E9"/>
<path d="M94.4576 21.4516H74.1186C72.9485 21.4516 72 22.3723 72 23.5081C72 24.6438 72.9485 25.5645 74.1186 25.5645H94.4576C95.6277 25.5645 96.5763 24.6438 96.5763 23.5081C96.5763 22.3723 95.6277 21.4516 94.4576 21.4516Z" fill="#BAC4DC"/>
<path d="M268.458 31.3226H248.119C246.949 31.3226 246 32.2433 246 33.379C246 34.5148 246.949 35.4355 248.119 35.4355H268.458C269.628 35.4355 270.576 34.5148 270.576 33.379C270.576 32.2433 269.628 31.3226 268.458 31.3226Z" fill="#BAC4DC"/>
<path d="M268.458 41.1935H248.119C246.949 41.1935 246 42.1142 246 43.25C246 44.3857 246.949 45.3064 248.119 45.3064H268.458C269.628 45.3064 270.576 44.3857 270.576 43.25C270.576 42.1142 269.628 41.1935 268.458 41.1935Z" fill="#CBD5E9"/>
<path d="M268.458 21.4516H248.119C246.949 21.4516 246 22.3723 246 23.5081C246 24.6438 246.949 25.5645 248.119 25.5645H268.458C269.628 25.5645 270.576 24.6438 270.576 23.5081C270.576 22.3723 269.628 21.4516 268.458 21.4516Z" fill="#BAC4DC"/>
</g>
</g>
<defs>
<linearGradient id="paint0_linear_5_18" x1="20.9901" y1="13.2699" x2="51.2414" y2="65.6666" gradientUnits="userSpaceOnUse">
<stop stop-color="#7F93B6"/>
<stop offset="0.739583" stop-color="#D7E2F5"/>
</linearGradient>
<linearGradient id="paint1_linear_5_18" x1="72" y1="28.8548" x2="272" y2="28.8548" gradientUnits="userSpaceOnUse">
<stop stop-color="#BAC4DC"/>
<stop offset="0.473958" stop-color="#D1E1E6"/>
<stop offset="0.958333" stop-color="#BAC4DC"/>
</linearGradient>
<clipPath id="clip0_5_18">
<rect width="280" height="64" fill="white"/>
</clipPath>
<clipPath id="clip1_5_18">
<rect width="64" height="64" fill="white" transform="translate(63) rotate(90)"/>
</clipPath>
<clipPath id="clip2_5_18">
<rect width="200" height="51" fill="white" transform="translate(72 5)"/>
</clipPath>
</defs>
</svg>
